<?xml version="1.0" encoding="utf-8"?>
<!-- Generator: Adobe Illustrator 21.1.0, SVG Export Plug-In . SVG Version: 6.00 Build 0)  -->
<svg version="1.1" id="Layer_1" xmlns="http://www.w3.org/2000/svg" xmlns:xlink="http://www.w3.org/1999/xlink" x="0px" y="0px"
	 viewBox="0 0 65 65" style="enable-background:new 0 0 65 65;" xml:space="preserve">
<style type="text/css">
	.st0{fill:#349AC4;}
</style>
<g>
	<path class="st0" d="M64,37.5L64,37.5c-0.2,4.7-1.8,9.8-4.2,14.6c0,0-5.9,11.9-24.4,11.9c-18.5,0-24.5-11.8-24.5-11.8
		c-2.5-4.7-4-9.8-4.2-14.7h0c0-0.1,0-0.2,0-0.4c0-2.3,1.4-4.4,3.8-6.2l2.6,1.7c-1.6,1.1-2.5,2.3-2.5,3.5c0,4.5,11.1,8.1,24.8,8.1
		c13.7,0,24.8-3.6,24.8-8.1c0-3.1-5.3-5.8-13.1-7.1l0-3.2c10,2,17,6.3,17,11.4C64,37.2,64,37.4,64,37.5z"/>
	<path class="st0" d="M16.2,18.2c-0.1,0.8-0.2,2,0.7,3.6c1.2,2,2.6,2.7,3.1,3c-0.1-0.5,0.1-2.1-1-3.9c-0.9-1.7-2-2.4-2.6-3
		c-1.7-2.5-3.6-4.4-5.1-6L7.8,8.3c0,0,1.3,1.5,3.4,3.8C12.6,13.7,14.5,15.7,16.2,18.2z"/>
	<path class="st0" d="M25,37.5c0.8,0.7,1.7,1.9,3.8,3c2.4,1.3,4.4,1.3,5,1.5c-0.4-0.6-1.1-2.6-3.8-4c-2.1-1.2-3.7-1-4.7-0.8
		c-3.2-1.9-6-3.8-8.2-5.2c-3.2-2-5.3-3-5.3-3c0,0,2,1.1,5.1,3.2C19.1,33.7,21.8,35.6,25,37.5z"/>
	<path class="st0" d="M26.9,27.2c-0.3,0.9-0.6,2.3,0.2,4.3c1,2.5,2.6,3.6,3.1,4.1c0-0.6,0.4-2.4-0.5-4.8c-0.8-2.1-1.9-3.2-2.5-3.9
		c-1.6-3.2-3.5-5.8-5-7.8l-3.6-4.8l3.4,4.9C23.4,21.3,25.3,24,26.9,27.2z"/>
	<path class="st0" d="M20.8,32.4c0.7,0.6,1.6,1.7,3.6,2.7c2.2,1.2,4.1,1.1,4.7,1.3c-0.4-0.6-1.1-2.3-3.6-3.6c-2-1.1-3.5-0.8-4.4-0.7
		c-3-1.7-5.7-3.4-7.8-4.7c-3-1.8-5-2.7-4.9-2.7c0,0,1.9,1,4.8,2.9C15.3,28.9,17.8,30.7,20.8,32.4z"/>
	<path class="st0" d="M16.5,27.3c0.7,0.6,1.5,1.6,3.4,2.5c2.1,1.1,3.8,1,4.4,1.1c-0.4-0.5-1.1-2.1-3.4-3.3c-1.9-0.9-3.2-0.7-4.1-0.5
		c-2.8-1.5-5.3-3.1-7.2-4.3C6.8,21.2,5,20.3,5,20.3c0,0,1.8,0.9,4.5,2.6C11.4,24.1,13.7,25.8,16.5,27.3z"/>
	<path class="st0" d="M12.2,19.9c1.3,1.1,2.5,1.2,3.1,1.4c-0.1-0.5,0-1.9-1.5-3.2c-1.2-1.1-2.5-1.1-3.1-1.2c-5-4.3-9.5-7.1-10.5-7.7
		L0,9.1c0,0,4.9,3.3,10.6,8.3C10.8,18,11.2,19.1,12.2,19.9z"/>
	<path class="st0" d="M12.1,22.3c0.6,0.5,1.4,1.4,3.2,2.2c1.9,1,3.5,0.9,4,0.9c-0.3-0.5-1-1.9-3.2-3c-1.7-0.8-3-0.6-3.8-0.5
		c-2.6-1.4-4.9-2.8-6.7-3.8C3.1,16.7,1.4,16,1.4,16c0,0,1.6,0.8,4.2,2.4C7.3,19.4,9.5,20.9,12.1,22.3z"/>
	<path class="st0" d="M21.7,22.6c-0.2,0.8-0.4,2.1,0.5,4c1.1,2.3,2.7,3.1,3.2,3.5c0-0.6,0.2-2.2-0.8-4.4c-0.9-1.9-1.9-2.8-2.6-3.5
		c-1.7-2.8-3.6-5.1-5.1-6.9l-3.6-4.2l3.4,4.3C18.1,17.4,20,19.7,21.7,22.6z"/>
	<path class="st0" d="M41.5,27.4c-0.6,0.6-1.5,1.5-1.7,3.4c-0.4,2.3,0.4,3.8,0.6,4.4c0.3-0.5,1.4-1.6,1.7-3.8c0.3-2-0.1-3.2-0.2-4
		c0.2-3.1-0.2-5.9-0.4-8.1c-0.4-3.2-0.7-5.1-0.7-5.1l0.5,5.2C41.4,21.5,41.7,24.4,41.5,27.4z"/>
	<path class="st0" d="M39.6,22.2c-0.5,0.5-1.2,1.5-1.4,3.3c-0.2,2.2,0.6,3.5,0.8,4c0.2-0.4,1.2-1.6,1.3-3.6c0.1-1.8-0.3-3-0.4-3.7
		c0-2.9-0.5-5.4-0.9-7.4l-0.9-4.7l0.7,4.7C39.2,16.7,39.7,19.3,39.6,22.2z"/>
	<path class="st0" d="M37.5,17.1c-0.4,0.5-1.1,1.4-1.1,3.1c0,2,0.8,3.2,1,3.6c0.2-0.4,0.9-1.6,1-3.5c0-1.7-0.4-2.7-0.6-3.4
		c-0.2-2.6-0.8-5-1.2-6.8l-1.1-4.3l0.9,4.3C36.8,12.1,37.4,14.4,37.5,17.1z"/>
	<path class="st0" d="M41.2,41c0.3-0.5,1.6-1.6,2.1-4c0.5-2.1,0.2-3.4,0.1-4.4c0.4-3.3,0.2-6.3,0-8.7c-0.2-3.4-0.4-5.6-0.4-5.6
		l0.2,5.6c0.1,2.4,0.2,5.5-0.2,8.8c-0.7,0.6-1.7,1.5-2.1,3.5C40.4,38.8,41.1,40.4,41.2,41z"/>
	<path class="st0" d="M30.7,13.7c0.3,0.6,0.5,1.5,1.5,2.7c1.1,1.3,2.2,1.8,2.6,2c-0.1-0.4-0.1-1.8-1.2-3.2c-1-1.2-1.9-1.5-2.6-1.6
		c-1.4-1.9-2.5-3.7-3.5-5c-1.3-2-2.3-3-2.3-3.1c0,0,0.9,1.1,2.2,3.1C28.3,10,29.3,11.8,30.7,13.7z"/>
	<path class="st0" d="M31.6,12c0.5,1.2,1.4,1.7,1.8,2.1c0.1-0.4,0.7-1.4,0.1-2.8c-0.5-1.2-1.4-1.6-1.8-1.9c-2.1-4.8-4.3-8.3-4.9-9.2
		L26.7,0c0,0,2.4,4,4.7,9.6C31.3,10.1,31.2,11,31.6,12z"/>
	<path class="st0" d="M33.7,21.8c1.1,1.5,2.4,2,2.8,2.2c-0.1-0.5,0-1.9-1.3-3.5c-1-1.3-2.1-1.6-2.8-1.7c-1.5-2.1-2.7-4-3.7-5.5
		c-1.4-2.1-2.5-3.3-2.5-3.3c0,0,0.9,1.3,2.3,3.4c0.9,1.5,2.1,3.5,3.6,5.5C32.4,19.5,32.7,20.5,33.7,21.8z"/>
	<path class="st0" d="M35.1,12.1c-0.3,0.5-0.9,1.4-0.8,2.9c0.1,1.9,1,2.9,1.2,3.3c0.1-0.4,0.8-1.5,0.7-3.2c-0.1-1.5-0.6-2.4-0.8-3.1
		c-0.4-2.4-1.1-4.5-1.6-6.1L32.6,2c0,0,0.4,1.5,1.1,3.9C34.1,7.5,34.8,9.7,35.1,12.1z"/>
	<path class="st0" d="M33.5,24c0.3,0.7,0.6,1.8,1.6,3.2c1.2,1.6,2.5,2.2,3,2.5c-0.1-0.5,0-2.1-1.3-3.9c-1.1-1.4-2.2-1.8-3-1.9
		c-1.6-2.3-2.9-4.4-3.9-6c-1.5-2.3-2.6-3.6-2.6-3.6c0,0,1,1.4,2.5,3.7C30.7,19.6,31.9,21.7,33.5,24z"/>
	<path class="st0" d="M18,38.1c0,0,1.8,1,4.5,3c0.2,0,0.4,0.1,0.6,0.1C20,39.1,17.9,38.1,18,38.1z"/>
	<path class="st0" d="M40,42c-0.4-0.7-0.8-1.1-1.3-1.5c-0.1-0.4-0.3-0.8-0.5-1.1c0.9,1,1.8,1.4,2.1,1.7c0,0,0-0.1,0-0.2
		c0.1,0.4,0.2,0.8,0.3,1.2c0.2,0,0.4,0,0.5,0c-0.3-1.1-0.7-2.2-1.1-3.2c-0.1-0.5-0.4-1.1-0.7-1.8c-0.3-0.8-0.7-1.6-1-2.3
		c0.4,0.3,0.8,0.5,0.9,0.6c-0.1-0.6,0.1-2.3-1.3-4.2c-0.8-1.1-1.7-1.6-2.4-1.9L33.6,25c0,0,0.7,1.5,1.9,4.1
		c-0.2-0.1-0.4-0.1-0.5-0.1c-1.7-2.5-3-4.8-4.1-6.5c-1.6-2.5-2.8-3.9-2.7-3.9c0,0,1.1,1.5,2.6,4c1,1.8,2.3,4.1,3.9,6.5
		c0.3,0.8,0.6,1.9,1.7,3.5c0.5,0.7,1.1,1.3,1.6,1.7c0.2,0.4,0.4,0.9,0.6,1.3c-0.9-0.9-1.9-1.2-2.5-1.4c-0.2-0.3-0.4-0.6-0.5-0.8
		c-1.1-2.3-2.2-4.4-3.2-6.1c-2.1-3.7-3.5-6-3.5-6l3.3,6.1c0.2,0.5,0.5,1,0.8,1.5c-0.4-0.6-0.7-1.2-1-1.7c-1.7-2.7-2.9-4.2-2.9-4.2
		c0,0,1.1,1.6,2.7,4.3c0.9,1.6,2,3.7,3.3,5.9c0.6,1.3,1.1,2.7,1.6,4.1c-0.1,0.3-0.3,0.7-0.4,1.1c-1.5-2.5-2.7-4.8-3.7-6.6
		c-0.3-0.6-0.7-1.1-1-1.6c-1.3-2.8-2.9-5.1-4.1-7.1c-2.2-3.3-3.6-5.4-3.6-5.4l3.3,5.5c1.4,2.4,3.3,5.4,4.8,9
		c-0.3,0.9-0.8,2.4-0.1,4.7c0.9,2.8,2.6,4,3.1,4.6c0-0.6,0.6-2.3,0-4.7c0.4,0.7,0.8,1.5,1.2,2.2c-0.2,0.9-0.2,1.9,0.1,3.3
		c1.4,0,2.8-0.1,4.1-0.1C40.1,42.1,40.1,42,40,42z"/>
	<path class="st0" d="M20.5,36.8c-3.4-2.2-5.6-3.2-5.6-3.3c0,0,2.1,1.2,5.4,3.5c1.9,1.3,4.2,3,6.9,4.8c0.3,0,0.7,0.1,1,0.1
		C25.3,40,22.7,38.2,20.5,36.8z"/>
	<path class="st0" d="M44.8,38.1c0.6-3.5,0.6-6.8,0.6-9.3l-0.1-6c0,0-0.1,2.3-0.1,6c-0.1,2.6-0.1,5.9-0.8,9.4
		c-0.7,0.6-1.9,1.5-2.5,3.6c0,0.1,0,0.1,0,0.2c1-0.1,1.9-0.2,2.8-0.3C45,40.1,44.8,38.9,44.8,38.1z"/>
</g>
</svg>
