<?xml version="1.0" encoding="utf-8"?>
<!-- Generator: Adobe Illustrator 21.1.0, SVG Export Plug-In . SVG Version: 6.00 Build 0)  -->
<svg version="1.1" id="Layer_1" xmlns="http://www.w3.org/2000/svg" xmlns:xlink="http://www.w3.org/1999/xlink" x="0px" y="0px"
	 viewBox="0 0 65 65" style="enable-background:new 0 0 65 65;" xml:space="preserve">
<style type="text/css">
	.st0{fill:#349AC4;}
</style>
<path class="st0" d="M0.4,48.4C1,49.4,2,50,3.1,50h30.6c1.1,0,2.1-0.6,2.7-1.6c0.5-1,0.5-2.1,0-3.1L21.1,18.8
	c-0.5-1-1.6-1.6-2.7-1.6c-1.1,0-2.1,0.6-2.7,1.6L0.4,45.4C-0.1,46.3-0.1,47.5,0.4,48.4z M17,41c0.4-0.4,0.9-0.6,1.5-0.6
	s1.1,0.2,1.5,0.6c0.4,0.4,0.6,0.9,0.6,1.5c0,0.6-0.2,1.1-0.6,1.5c-0.4,0.4-0.9,0.6-1.5,0.6S17.3,44.4,17,44
	c-0.4-0.4-0.6-0.9-0.6-1.5C16.4,41.9,16.6,41.4,17,41z M16.8,39.1V28.3h3.4v10.8H16.8z"/>
<path class="st0" d="M51.4,2.9C50,1.7,49,2,47.7,4.5c-0.9,1.6-2.4,1.8-3.3,1.8l0-0.3c1-0.5,1.8-1.6,1.8-2.8C46.2,1.4,44.7,0,43,0
	s-3.2,1.4-3.2,3.2c0,1.2,0.7,2.3,1.8,2.8l0,0.3c-0.9,0.1-2.4-0.1-3.3-1.8C37,2,36,1.7,34.6,2.9C33.2,4,27.7,10.6,21,10
	c0,0,1.3,3,5,2.3c0,0,1.9,2,5.1,0.6c0,0,1.6,1.5,4.2,0.1c0,0,1.9,1.5,4,0.2c0,0,1.2,0.8,2.5,0.6l0.1,7.6c-0.1,0-0.3-0.1-0.4-0.1
	c0,0-2.3-0.5-4.6-1.2c-2.3-0.6-4.8-1.6-5.2-2.1c0,0,0.1-0.1,0.1-0.1c0.2-0.1,0.6-0.2,1-0.3c0.8-0.2,2-0.3,3.1-0.3
	c2.3-0.1,2.7,0,2.7,0c0-0.1,1.3,0.2,1.7-1.2c0,0,0-0.1,0-0.1c-0.1-0.9-0.8-1-1.4-1.1c-0.9-0.1-0.4-0.1-1.7-0.1
	c-2.1,0.2-8.5-0.4-9.3,3c0,0.1,0,0.2,0,0.2c0.3,2.9,6.4,4.2,10.8,5.1c-1.5,1-2.3,2.4-2.6,4.1c-0.2,1.8,1.3,3.6,4.7,5.5
	c-2.6,1.8-4.3,3.5-4.1,5.6c0.2,1.7,1.7,3.9,4.6,5.4c0,0,0,0,0,0c0,0,0,0,0,0c0,0-2-3.1-2.2-4.8c-0.1-1,0.4-2.5,2.9-4.2l0.1,6.2h0
	c0,0.5,0.4,1,0.9,1c0.5,0,0.9-0.4,0.9-1h0l0.1-6.1c2.3,1.7,2.8,3.1,2.7,4.1c-0.1,1.7-2.2,4.8-2.2,4.8c0,0,0,0,0,0c0,0,0,0,0,0
	c2.9-1.4,4.4-3.7,4.6-5.4c0.1-2.1-1.6-3.8-4.1-5.6c3.4-2,4.8-3.7,4.7-5.5c-0.3-1.7-1.1-3.1-2.6-4.1c4.4-0.9,10.5-2.2,10.8-5.1
	c0-0.1,0-0.1,0-0.2c-0.8-3.4-7.2-2.9-9.3-3c-1.3,0-0.8-0.1-1.7,0.1c-0.6,0.1-1.3,0.2-1.4,1.1c0,0,0,0.1,0,0.1
	c0.4,1.3,1.7,1.1,1.7,1.2c0,0,0.4-0.1,2.7,0c1.1,0,2.3,0.1,3.1,0.3c0.4,0.1,0.8,0.2,1,0.3c0.1,0,0.1,0.1,0.2,0.1
	c-0.4,0.5-2.9,1.5-5.2,2.1c-2.4,0.7-4.6,1.1-4.6,1.2c-0.1,0-0.1,0-0.2,0l0.1-7.5c1.3,0.2,2.5-0.6,2.5-0.6c2.1,1.3,4-0.2,4-0.2
	c2.6,1.3,4.2-0.1,4.2-0.1c3.1,1.4,5.1-0.6,5.1-0.6c3.6,0.7,5-2.3,5-2.3C58.3,10.6,52.8,4,51.4,2.9z M40,29.8
	c-0.8-0.5-1.2-1.2-1.2-1.7c0-0.7-0.2-2.2,2.9-3.4l0.1,6.3C41.3,30.6,40.7,30.2,40,29.8z M46.8,28.1c0.1,0.5-0.3,1.2-1.2,1.7
	c-0.5,0.4-1.1,0.7-1.6,1l0.1-6C47,25.9,46.8,27.4,46.8,28.1z"/>
</svg>
