<?xml version="1.0" encoding="utf-8"?>
<!-- Generator: Adobe Illustrator 21.1.0, SVG Export Plug-In . SVG Version: 6.00 Build 0)  -->
<svg version="1.1" id="Layer_1" xmlns="http://www.w3.org/2000/svg" xmlns:xlink="http://www.w3.org/1999/xlink" x="0px" y="0px"
	 viewBox="0 0 65 65" style="enable-background:new 0 0 65 65;" xml:space="preserve">
<style type="text/css">
	.st0{fill:#349AC4;}
</style>
<g>
	<path class="st0" d="M34.7,0.2C21.6,0.2,11,10.8,11,23.9s10.6,23.7,23.7,23.7S58.4,37,58.4,23.9S47.8,0.2,34.7,0.2z M25,26.9
		c0-1.6,1.3-2.8,2.8-2.8c1.6,0,2.8,1.3,2.8,2.8c0,1.6-1.3,2.8-2.8,2.8C26.3,29.9,25,28.6,25,26.9z M34.4,43.9c-4,0-7.2-1.7-7.2-3.8
		h14.5C41.7,42.1,38.5,43.9,34.4,43.9z M41.6,29.9c-1.6,0-2.8-1.3-2.8-2.8s1.3-2.8,2.8-2.8c1.6,0,2.8,1.3,2.8,2.8
		C44.5,28.6,43.2,29.9,41.6,29.9z"/>
	<path class="st0" d="M52.4,59.2c0,3.1-5.4,5.6-12.1,5.6s-10.6-3-12.1-5.6c-1.5-2.6,0,0,0,0c-2-2.4-3.8-4.1-5.9-5.4
		c-1.1,2.2-4.6,3.1-8.1,2.1c-3.9-1.1-6.5-4.1-5.7-6.7C8.5,49,8.6,49,8.6,48.8c-2.3-0.6-4.9-1.2-7.9-2c-0.5-0.1-0.7-0.6-0.6-1
		c0.1-0.5,0.6-0.7,1-0.6c6.4,1.7,4.5,1.2,8.3,2.5c1.5-1.6,4.5-2.1,7.6-1.2c3.7,1.1,6.3,3.9,5.8,6.4c2.9,1.6,5.2,3.3,6.7,5.1l0,0l0,0
		c0.5,0.3,4.8,3,11.1,3C47,61,52.4,59.2,52.4,59.2z"/>
	<path class="st0" d="M36.6,60c-0.1,0.1-0.1,0.1-0.1,0.1c-0.1,0-0.1,0-0.2-0.1c0.1-0.3,0.4-0.6-0.2-0.9c0.4,0.2,0.8,0.1,1.2,0.3
		c0.3,0.1,0.3,0.5,0.7,0.4C37.5,59.8,37,60,36.6,60z"/>
	<path class="st0" d="M40.1,59.2c-0.7-0.3-0.8-1.2-0.4-1.7c-0.1,0-0.3,0-0.5,0.1c0,0.3-0.1,0.6-0.2,1c-0.1,0.2,0.5,0.2,0.4,0.6
		c-0.1,0.5-0.7,0.8-1.2,0.8c0.1,0.1,0.4,0.3,0.6,0.5c0.1,0,0.1,0,0.3,0C39,60.1,39.6,59.4,40.1,59.2z"/>
	<path class="st0" d="M41.8,59.8c0.1-0.1,0.2-0.5,0.3-0.6l0,0c-0.3-0.1-0.6-0.3-0.8-0.6c-0.1,0.1-0.1,0.3-0.3,0.4c0.6,0,1,0.5,0.5,1
		c0.3,0.2,0.4,0.3,0.5,0.5l0,0C42,60.2,41.9,60,41.8,59.8z"/>
	<path class="st0" d="M35.3,58c-1.4-0.5,0.8-1.5,1.2-1.6c0.4-0.1,1,0,1,0.4c0,0.5-0.9,0.9-1.4,1c0.8,0.1,0.6-0.2,1-0.4
		c0.3-0.1,0.7-0.3,1-0.5c0.1-0.1,0.1-0.3,0.3-0.6c0.5-0.6,3-0.6,2.6,0.5c0.3,0.1,0.5,0.1,0.7,0c-0.4-1,1.2-0.9,1.8-0.8
		c1,0.1,0.6,1.1-0.1,0.8c0,0.1,0,0.2,0.1,0.3c0.7-0.3,1.4-0.6,1.9-0.3c0.4,0.3,0.5,0.8,0.3,1.1c0.1,0,0.2,0,0.3,0
		c-0.5-1.1,1.3-0.9,1.6-0.1c1.2-0.9,1.1,1.3,1.2,1.2c0-0.1,0.1,0.1,0.2,0.1c0,0,0.1,0.1,0.1,0.1c2.1-0.5,3.4-0.9,3.5-0.9
		c-1.6-1.5-5.4-3.7-12-3.7c-5.1,0-9,1.2-11.1,2.5c0.2,0.1,1,0.6,2.3,1.2c0.6-0.2,1.5-0.3,1.7-0.3c0.2-2.1,2.8,0.8,1.2,0.5
		c0.2,0.3,0.1,0.6-0.1,0.8c0.1,0,0.1,0.1,0.2,0.1c0.3-0.2,0.5-0.4,0.7-0.5C34.5,59,35,58.4,35.3,58z"/>
	<path class="st0" d="M47,58.6c-0.1,0.3-0.1,0.5,0.1,0.8c0.1,0,0.3-0.1,0.5-0.1c-0.1-0.1-0.3-0.1-0.3-0.2C47.2,59,47,58.8,47,58.6z"
		/>
	<path class="st0" d="M45,59.4c-0.8-0.3,0.3-1.2,0.3-1.1c-0.1-0.1-1.1,0.5-1.6,0.5c0.5-0.1,1,0.1,0.9,0.7c0.6-0.1,0.8,0.2,0.8,0.6
		c0,0,0,0,0.1,0C45.5,59.8,45.4,59.6,45,59.4z"/>
</g>
</svg>
