<?xml version="1.0" encoding="utf-8"?>
<!-- Generator: Adobe Illustrator 21.1.0, SVG Export Plug-In . SVG Version: 6.00 Build 0)  -->
<svg version="1.1" id="Layer_1" xmlns="http://www.w3.org/2000/svg" xmlns:xlink="http://www.w3.org/1999/xlink" x="0px" y="0px"
	 viewBox="0 0 80 72" style="enable-background:new 0 0 80 72;" xml:space="preserve">
<style type="text/css">
	.st0{fill:#2899C6;}
	.st1{fill:#FFFFFF;}
	.st2{fill:#FFFFFF;stroke:#2899C6;stroke-width:2.9139;stroke-miterlimit:10;}
</style>
<g>
	<path class="st0" d="M35.5,8.9c-7.4,0-13.3,6-13.3,13.3c0,7.4,6,13.3,13.3,13.3s13.3-6,13.3-13.3C48.8,14.8,42.9,8.9,35.5,8.9z"/>
	<path class="st0" d="M0,0v44.4h71V0H0z M66.6,31.1c-4.9,0-8.9,4-8.9,8.9H13.3c0-4.9-4-8.9-8.9-8.9V13.3c4.9,0,8.9-4,8.9-8.9h44.4
		c0,4.9,4,8.9,8.9,8.9V31.1z"/>
	<path class="st1" d="M35.9,13.7c1.4,0,2.8,0.3,4.1,0.9l-0.8,2c-1.2-0.5-2.2-0.8-3.1-0.8c-1.5,0-2.2,0.8-2.2,2.4v2.7h4.3v1.9h-4.3v2
		c0,0.7-0.1,1.2-0.4,1.7s-0.6,0.9-1.2,1.2h8.2v2.3H29.2v-2.1c0.7-0.2,1.2-0.6,1.6-1c0.3-0.5,0.5-1.1,0.5-1.9v-2h-2v-1.9h2v-2.8
		c0-1.4,0.4-2.4,1.2-3.2C33.4,14.1,34.5,13.7,35.9,13.7z"/>
	<circle class="st2" cx="52.2" cy="46.1" r="21.8"/>
	<g>
		<path class="st0" d="M52.5,57.3h14.9l-5.3-9.2c-1.6,0.8-2.6,2.2-3.5,3.4l-6-3.5L50,37.8c-0.1-0.6-0.7-1.2-1.3-1.5l0,0
			c-0.2-0.1-0.4-0.2-0.6-0.2h-4.6c-0.7,0-1.2,0.4-1.6,1l-2.1,3.5c-0.3,0.7-0.1,1.6,0.4,1.8l2.9,1.7l-0.1,0.1c-0.3,0.6,0,1.4,0.4,1.7
			l6,3.4v6.5c0,0.7,0.5,1.3,1.3,1.3h0c0.4,0,0.7-0.1,0.9-0.4c0.2-0.2,0.3-0.5,0.3-0.8v-6.7l6,3.4c-1.4,1.3-2.9,0.6-3.9,1.8
			C53.2,55.2,52.7,56.2,52.5,57.3z M43.6,42.8l-1.9-1.1l2-3.3h2.5L43.6,42.8z M47.1,44.9l1.7-2.9l1.3,4.5L47.1,44.9z"/>
		<path class="st0" d="M51.4,37.4L51.4,37.4L51.4,37.4L51.4,37.4z"/>
		<path class="st0" d="M51.4,37.4L51.4,37.4L51.4,37.4L51.4,37.4z"/>
		<path class="st0" d="M51.4,37.4c1.3,0,2.1-1.2,2.1-2.5c0-1.3-1-2.1-2.1-2.3l0,0c-0.1,0-0.3,0-0.4,0c-1.3,0-1.7,1.2-1.7,2.6
			C49.3,36.5,50.1,37.4,51.4,37.4z"/>
		<path class="st0" d="M45.5,47.8l-2.7-1.5l0.3,1.9c0,0.4,0.3,1.2,0,1.6l-3.6,5.1c-0.4,0.5-0.2,1.4,0.3,1.8c0.7,0.5,1.6,0,1.8-0.3
			l3.8-5.5c0.1-0.2,0.4-1.1,0.3-1.8C45.8,49,45.6,47.8,45.5,47.8z"/>
	</g>
</g>
</svg>
