<?xml version="1.0" encoding="utf-8"?>
<!-- Generator: Adobe Illustrator 21.1.0, SVG Export Plug-In . SVG Version: 6.00 Build 0)  -->
<svg version="1.1" id="Layer_1" xmlns="http://www.w3.org/2000/svg" xmlns:xlink="http://www.w3.org/1999/xlink" x="0px" y="0px"
	 viewBox="0 0 80 72" style="enable-background:new 0 0 80 72;" xml:space="preserve">
<style type="text/css">
	.st0{fill:#2899C6;}
	.st1{fill:#FFFFFF;}
	.st2{fill:#FFFFFF;stroke:#2899C6;stroke-width:2.9139;stroke-miterlimit:10;}
	.st3{fill:none;stroke:#BBBDBF;stroke-width:1.4569;stroke-miterlimit:10;}
	.st4{fill:none;stroke:#2899C6;stroke-width:1.9426;stroke-miterlimit:10;}
</style>
<g>
	<path class="st0" d="M35.5,8.9c-7.4,0-13.3,6-13.3,13.3c0,7.4,6,13.3,13.3,13.3s13.3-6,13.3-13.3C48.8,14.8,42.9,8.9,35.5,8.9z"/>
	<path class="st0" d="M0,0v44.4h71V0H0z M66.6,31.1c-4.9,0-8.9,4-8.9,8.9H13.3c0-4.9-4-8.9-8.9-8.9V13.3c4.9,0,8.9-4,8.9-8.9h44.4
		c0,4.9,4,8.9,8.9,8.9V31.1z"/>
	<path class="st1" d="M36.1,13.4c1.4,0,2.8,0.3,4.1,0.9l-0.8,2c-1.2-0.5-2.2-0.8-3.1-0.8c-1.5,0-2.2,0.8-2.2,2.4v2.7h4.3v1.9H34v2
		c0,0.7-0.1,1.2-0.4,1.7S33,27,32.4,27.3h8.2v2.3H29.4v-2.1c0.7-0.2,1.2-0.6,1.6-1c0.3-0.5,0.5-1.1,0.5-1.9v-2h-2v-1.9h2v-2.8
		c0-1.4,0.4-2.4,1.2-3.2C33.5,13.8,34.7,13.4,36.1,13.4z"/>
	<circle class="st2" cx="52.2" cy="46.1" r="21.8"/>
	
		<rect x="39.6" y="37.7" transform="matrix(-1.836970e-16 1 -1 -1.836970e-16 83.6405 -1.87)" class="st3" width="6.3" height="6.3"/>
	
		<rect x="39.6" y="50" transform="matrix(-1.836970e-16 1 -1 -1.836970e-16 95.8913 10.3808)" class="st3" width="6.3" height="6.3"/>
	<g>
		<polyline class="st3" points="67.9,42.4 64.8,39.3 61.7,42.4 61.7,42.4 58.6,39.3 55.5,42.4 52.4,39.3 49.3,42.4 		"/>
	</g>
	<g>
		<polyline class="st3" points="67.9,54.7 64.8,51.6 61.7,54.7 61.7,54.7 58.6,51.6 55.5,54.7 52.4,51.6 49.3,54.7 		"/>
	</g>
	<polyline class="st4" points="47.2,37.5 43,41.7 41.3,40.1 	"/>
</g>
</svg>
