<?xml version="1.0" encoding="utf-8"?>
<!-- Generator: Adobe Illustrator 21.1.0, SVG Export Plug-In . SVG Version: 6.00 Build 0)  -->
<svg version="1.1" id="Layer_1" xmlns="http://www.w3.org/2000/svg" xmlns:xlink="http://www.w3.org/1999/xlink" x="0px" y="0px"
	 viewBox="0 0 80 72" style="enable-background:new 0 0 80 72;" xml:space="preserve">
<style type="text/css">
	.st0{fill:#349AC4;}
</style>
<path class="st0" d="M64.9,25.7c-1.4-1.1-2.3-0.9-3.7,1.6c-0.9,1.6-2.4,1.8-3.2,1.8l0-0.3c1-0.5,1.8-1.5,1.8-2.8
	c0-1.7-1.4-3.1-3.1-3.1s-3.1,1.4-3.1,3.1c0,1.2,0.7,2.3,1.8,2.8l0,0.3c-0.9,0-2.3-0.1-3.2-1.8c-1.4-2.5-2.3-2.7-3.7-1.6
	c-1.4,1.1-6.8,7.6-13.4,7c0,0,1.3,3,4.9,2.3c0,0,1.9,2,5,0.6c0,0,1.6,1.5,4.2,0.1c0,0,1.9,1.5,3.9,0.2c0,0,1.1,0.8,2.4,0.6l0.1,7.5
	c-0.1,0-0.3-0.1-0.4-0.1c0,0-2.2-0.5-4.6-1.1c-2.3-0.6-4.7-1.6-5.1-2.1c0,0,0.1-0.1,0.1-0.1c0.2-0.1,0.5-0.2,1-0.3
	c0.8-0.2,2-0.3,3.1-0.3c2.2-0.1,2.7,0,2.7,0c0-0.1,1.3,0.2,1.7-1.2c0,0,0-0.1,0-0.1c-0.1-0.9-0.8-1-1.3-1.1
	c-0.9-0.1-0.4-0.1-1.7-0.1c-2.1,0.2-8.4-0.4-9.2,3c0,0.1,0,0.2,0,0.2c0.3,2.9,6.3,4.2,10.6,5c-1.5,1-2.3,2.3-2.6,4
	c-0.2,1.8,1.3,3.5,4.6,5.5c-2.5,1.8-4.2,3.5-4.1,5.5c0.2,1.7,1.7,3.9,4.6,5.3c0,0,0,0,0,0h0c0,0-2-3.1-2.2-4.8
	c-0.1-1,0.4-2.4,2.9-4.2l0.1,6.2h0c0,0.5,0.4,0.9,0.9,0.9c0.5,0,0.9-0.4,0.9-0.9h0l0.1-6c2.3,1.7,2.8,3.1,2.6,4
	c-0.1,1.7-2.2,4.8-2.2,4.8s0,0,0,0c0,0,0,0,0,0c2.9-1.4,4.4-3.6,4.6-5.3c0.1-2-1.5-3.7-4.1-5.5c3.3-1.9,4.8-3.7,4.6-5.5
	c-0.3-1.7-1.1-3-2.6-4c4.4-0.9,10.4-2.1,10.6-5c0-0.1,0-0.1,0-0.2c-0.8-3.3-7.1-2.8-9.2-3c-1.3,0-0.8-0.1-1.7,0.1
	c-0.6,0.1-1.3,0.2-1.3,1.1c0,0,0,0.1,0,0.1c0.4,1.3,1.7,1.1,1.7,1.2c0,0,0.4-0.1,2.7,0c1.1,0,2.3,0.1,3.1,0.3c0.4,0.1,0.7,0.2,1,0.3
	c0.1,0,0.1,0.1,0.2,0.1c-0.4,0.5-2.8,1.5-5.1,2.1C60.2,43.6,58,44,58,44c-0.1,0-0.1,0-0.2,0l0.1-7.4c1.3,0.2,2.4-0.6,2.4-0.6
	c2,1.3,3.9-0.2,3.9-0.2c2.6,1.3,4.2-0.1,4.2-0.1c3.1,1.4,5-0.6,5-0.6c3.6,0.7,4.9-2.3,4.9-2.3C71.7,33.3,66.3,26.8,64.9,25.7z
	 M53.7,52.3c-0.8-0.5-1.2-1.2-1.1-1.7c0-0.7-0.2-2.2,2.9-3.4l0.1,6.2C54.9,53.1,54.3,52.7,53.7,52.3z M60.4,50.6
	c0.1,0.5-0.3,1.2-1.1,1.7c-0.5,0.3-1.1,0.7-1.6,1l0.1-5.9C60.6,48.5,60.4,50,60.4,50.6z"/>
<g>
	<path class="st0" d="M26.8,9.8c-1.9,0-3.5,1.6-3.5,3.5c0,1.9,1.6,3.5,3.5,3.5c1.9,0,3.5-1.6,3.5-3.5C30.3,11.3,28.8,9.8,26.8,9.8z"
		/>
	<path class="st0" d="M33.2,29.6c-0.4,0.2-0.9,0-1-0.4l-1.6-6.8l-0.2,7.2h0l0.6,11.9c0,0.7-0.5,1.3-1.2,1.4c0,0-0.1,0-0.1,0
		c-0.7,0-1.3-0.5-1.3-1.2l-1.5-11.3l-1.5,11.3c-0.1,0.7-0.6,1.2-1.3,1.2c0,0-0.1,0-0.1,0c-0.7-0.1-1.3-0.7-1.2-1.4l0.6-11.9
		l-0.2-7.2c0,0-4.3,4.4-4.6,4.5c-0.5,0.2-1,0-1.2-0.5l-3.5-7.7l2.7,12.9h-2.6l-0.8,10.6c0,0.5-0.4,0.9-0.9,0.9
		c-0.5,0-0.9-0.4-0.9-0.9l-0.8-10.6H10H9.5L8.7,42.3c0,0.5-0.4,0.9-0.9,0.9c-0.5,0-0.9-0.4-0.9-0.9L6.1,31.7H3.5l2.7-12.9l-3.5,7.7
		c-0.2,0.5-0.7,0.7-1.2,0.5c-0.5-0.2-0.7-0.7-0.5-1.2c0,0,2.1-7.6,3.1-9.6c1-2,1.9-3.2,5.6-3.2H10h0.4c3.7,0,4.6,1.2,5.6,3.2
		c0.7,1.4,2,5.9,2.7,8.2c0.9-1.3,2.2-3.1,2.7-4.1c0.8-1.7,2.1-2.7,5.2-2.7h0.6c3.1,0,4.4,1,5.2,2.7c0.8,1.7,1.2,8.4,1.2,8.4
		C33.7,29,33.6,29.5,33.2,29.6z"/>
	<path class="st0" d="M15.9,10.3c0,1-0.8,1.8-1.9,1.8c-0.7,0-1.4-0.4-1.7-1c-0.7,0.6-1.6,1-2.6,1c-1,0-1.9-0.4-2.6-1
		c-0.3,0.6-0.9,1-1.7,1c-1.1,0-1.9-0.8-1.9-1.8c0-1,0.8-1.8,1.9-1.8c0.1,0,0.2,0,0.2,0c0-0.2-0.1-0.4-0.1-0.6c0-2.3,1.9-4.1,4.2-4.1
		c2.3,0,4.1,1.9,4.1,4.1c0,0.2-0.1,0.4-0.1,0.6c0.1,0,0.1,0,0.2,0C15.1,8.5,15.9,9.3,15.9,10.3z"/>
</g>
</svg>
