<?xml version="1.0" encoding="utf-8"?>
<!-- Generator: Adobe Illustrator 21.1.0, SVG Export Plug-In . SVG Version: 6.00 Build 0)  -->
<svg version="1.1" id="Layer_1" xmlns="http://www.w3.org/2000/svg" xmlns:xlink="http://www.w3.org/1999/xlink" x="0px" y="0px"
	 viewBox="0 0 80 72" style="enable-background:new 0 0 80 72;" xml:space="preserve">
<style type="text/css">
	.st0{fill:#349AC4;}
</style>
<path class="st0" d="M51.9,25.7c-1.4-1.1-2.3-0.9-3.7,1.6c-0.9,1.6-2.4,1.8-3.2,1.8v-0.3c1-0.5,1.8-1.5,1.8-2.8
	c0-1.7-1.4-3.1-3.1-3.1s-3.1,1.4-3.1,3.1c0,1.2,0.7,2.3,1.8,2.8v0.3c-0.9,0-2.3-0.1-3.2-1.8c-1.4-2.5-2.3-2.7-3.7-1.6
	s-6.8,7.6-13.4,7c0,0,1.3,3,4.9,2.3c0,0,1.9,2,5,0.6c0,0,1.6,1.5,4.2,0.1c0,0,1.9,1.5,3.9,0.2c0,0,1.1,0.8,2.4,0.6l0.1,7.5
	c-0.1,0-0.3-0.1-0.4-0.1c0,0-2.2-0.5-4.6-1.1c-2.3-0.6-4.7-1.6-5.1-2.1l0.1-0.1c0.2-0.1,0.5-0.2,1-0.3c0.8-0.2,2-0.3,3.1-0.3
	c2.2-0.1,2.7,0,2.7,0c0-0.1,1.3,0.2,1.7-1.2v-0.1c-0.1-0.9-0.8-1-1.3-1.1c-0.9-0.1-0.4-0.1-1.7-0.1c-2.1,0.2-8.4-0.4-9.2,3
	c0,0.1,0,0.2,0,0.2c0.3,2.9,6.3,4.2,10.6,5c-1.5,1-2.3,2.3-2.6,4c-0.2,1.8,1.3,3.5,4.6,5.5c-2.5,1.8-4.2,3.5-4.1,5.5
	c0.2,1.7,1.7,3.9,4.6,5.3l0,0l0,0c0,0-2-3.1-2.2-4.8c-0.1-1,0.4-2.4,2.9-4.2l0.1,6.2l0,0c0,0.5,0.4,0.9,0.9,0.9s0.9-0.4,0.9-0.9l0,0
	l0.1-6c2.3,1.7,2.8,3.1,2.6,4c-0.1,1.7-2.2,4.8-2.2,4.8l0,0l0,0c2.9-1.4,4.4-3.6,4.6-5.3c0.1-2-1.5-3.7-4.1-5.5
	c3.3-1.9,4.8-3.7,4.6-5.5c-0.3-1.7-1.1-3-2.6-4c4.4-0.9,10.4-2.1,10.6-5c0-0.1,0-0.1,0-0.2c-0.8-3.3-7.1-2.8-9.2-3
	c-1.3,0-0.8-0.1-1.7,0.1c-0.6,0.1-1.3,0.2-1.3,1.1v0.1c0.4,1.3,1.7,1.1,1.7,1.2c0,0,0.4-0.1,2.7,0c1.1,0,2.3,0.1,3.1,0.3
	c0.4,0.1,0.7,0.2,1,0.3c0.1,0,0.1,0.1,0.2,0.1c-0.4,0.5-2.8,1.5-5.1,2.1C47.2,43.6,45,44,45,44c-0.1,0-0.1,0-0.2,0l0.1-7.4
	c1.3,0.2,2.4-0.6,2.4-0.6c2,1.3,3.9-0.2,3.9-0.2c2.6,1.3,4.2-0.1,4.2-0.1c3.1,1.4,5-0.6,5-0.6c3.6,0.7,4.9-2.3,4.9-2.3
	C58.7,33.3,53.3,26.8,51.9,25.7z M40.7,52.3c-0.8-0.5-1.2-1.2-1.1-1.7c0-0.7-0.2-2.2,2.9-3.4l0.1,6.2C41.9,53.1,41.3,52.7,40.7,52.3
	z M47.4,50.6c0.1,0.5-0.3,1.2-1.1,1.7c-0.5,0.3-1.1,0.7-1.6,1l0.1-5.9C47.6,48.5,47.4,50,47.4,50.6z"/>
<path class="st0" d="M23.1,13.5h-8.6V8.7h3c0.5,0,1-0.4,1-1c0-0.5-0.4-1-1-1H6.5c-0.5,0-1,0.4-1,1c0,0.5,0.4,1,1,1h3v4.8H0.9
	C0.4,13.5,0,14,0,14.5c0,0.5,0.4,0.9,0.9,0.9h6.8v26H10v2.2c0,0-0.1,0.7,1,1v10.8c0,0.5,0.4,1,1,1s1-0.4,1-1V44.6c1.2-0.3,1-1,1-1
	v-2.2h2.3v-26h6.8c0.5,0,0.9-0.4,0.9-0.9C24,14,23.6,13.5,23.1,13.5z M14.5,28h-5V15.4h5L14.5,28L14.5,28z"/>
</svg>
