<?xml version="1.0" encoding="utf-8"?>
<!-- Generator: Adobe Illustrator 21.1.0, SVG Export Plug-In . SVG Version: 6.00 Build 0)  -->
<svg version="1.1" id="Layer_1" xmlns="http://www.w3.org/2000/svg" xmlns:xlink="http://www.w3.org/1999/xlink" x="0px" y="0px"
	 viewBox="0 0 80 72" style="enable-background:new 0 0 80 72;" xml:space="preserve">
<style type="text/css">
	.st0{fill:#349AC4;}
</style>
<g>
	<path class="st0" d="M40.8,0L27.9,12.8h3.2v9.6h19.3v-9.6h3.2L40.8,0z"/>
	<path class="st0" d="M12.8,0L0,12.8h3.2v9.6h19.3v-9.6h3.2L12.8,0z"/>
	<g>
		<path class="st0" d="M26.8,23.4L14,36.2h3.2v9.6h19.3v-9.6h3.2L26.8,23.4z"/>
	</g>
</g>
<path class="st0" d="M65.7,24.7c-1.2-1-2.1-0.8-3.4,1.4c-0.8,1.5-2.1,1.6-2.9,1.6l0-0.3C60.3,27,61,26,61,24.9
	c0-1.6-1.3-2.8-2.8-2.8c-1.6,0-2.8,1.3-2.8,2.8c0,1.1,0.7,2,1.6,2.5l0,0.3c-0.8,0-2.1-0.1-2.9-1.6c-1.2-2.2-2.1-2.5-3.4-1.4
	c-1.3,1-6.2,6.9-12.2,6.4c0,0,1.2,2.7,4.4,2.1c0,0,1.7,1.8,4.6,0.5c0,0,1.5,1.3,3.8,0.1c0,0,1.7,1.3,3.6,0.2c0,0,1,0.8,2.2,0.6
	l0.1,6.8c-0.1,0-0.2-0.1-0.4-0.1c0,0-2-0.4-4.2-1c-2.1-0.5-4.3-1.4-4.6-1.9c0,0,0.1-0.1,0.1-0.1c0.2-0.1,0.5-0.2,0.9-0.3
	c0.8-0.2,1.8-0.2,2.8-0.3c2-0.1,2.4,0,2.4,0c0-0.1,1.2,0.1,1.5-1.1c0,0,0-0.1,0-0.1c-0.1-0.8-0.7-0.9-1.2-1
	c-0.8-0.1-0.4-0.1-1.5-0.1c-1.9,0.1-7.6-0.3-8.3,2.7c0,0.1,0,0.1,0,0.2c0.2,2.6,5.7,3.8,9.6,4.6c-1.3,0.9-2.1,2.1-2.3,3.7
	c-0.1,1.6,1.2,3.2,4.2,5c-2.3,1.6-3.8,3.2-3.7,5c0.2,1.5,1.5,3.5,4.2,4.8c0,0,0,0,0,0c0,0,0,0,0,0c0,0-1.8-2.8-2-4.3
	c-0.1-0.9,0.4-2.2,2.6-3.8l0.1,5.6h0c0,0.5,0.4,0.9,0.8,0.9c0.5,0,0.8-0.4,0.8-0.9h0l0.1-5.5c2.1,1.5,2.5,2.8,2.4,3.7
	c-0.1,1.5-2,4.3-2,4.3c0,0,0,0,0,0c0,0,0,0,0,0c2.6-1.3,4-3.3,4.2-4.8c0.1-1.9-1.4-3.4-3.7-5c3-1.8,4.3-3.3,4.2-5
	c-0.3-1.5-1-2.7-2.3-3.7c4-0.8,9.4-1.9,9.6-4.6c0-0.1,0-0.1,0-0.2c-0.7-3-6.5-2.6-8.3-2.7c-1.1,0-0.7-0.1-1.5,0.1
	c-0.5,0.1-1.2,0.1-1.2,1c0,0,0,0.1,0,0.1c0.3,1.2,1.5,1,1.5,1.1c0,0,0.4-0.1,2.4,0c1,0,2,0.1,2.8,0.3c0.4,0.1,0.7,0.2,0.9,0.3
	c0.1,0,0.1,0.1,0.1,0.1c-0.3,0.5-2.6,1.3-4.6,1.9c-2.1,0.6-4.1,1-4.2,1c-0.1,0-0.1,0-0.1,0l0.1-6.8c1.2,0.2,2.2-0.6,2.2-0.6
	c1.8,1.1,3.6-0.2,3.6-0.2c2.3,1.2,3.8-0.1,3.8-0.1c2.8,1.3,4.6-0.5,4.6-0.5c3.2,0.6,4.4-2.1,4.4-2.1C71.9,31.6,66.9,25.7,65.7,24.7z
	 M55.5,48.8c-0.8-0.5-1.1-1.1-1-1.5c0-0.6-0.2-2,2.6-3l0.1,5.6C56.6,49.5,56.1,49.2,55.5,48.8z M61.6,47.3c0.1,0.4-0.3,1.1-1,1.5
	c-0.5,0.3-1,0.6-1.4,0.9l0.1-5.4C61.7,45.4,61.5,46.7,61.6,47.3z"/>
</svg>
