<?xml version="1.0" encoding="utf-8"?>
<!-- Generator: Adobe Illustrator 21.1.0, SVG Export Plug-In . SVG Version: 6.00 Build 0)  -->
<svg version="1.1" id="Layer_1" xmlns="http://www.w3.org/2000/svg" xmlns:xlink="http://www.w3.org/1999/xlink" x="0px" y="0px"
	 viewBox="0 0 80 72" style="enable-background:new 0 0 80 72;" xml:space="preserve">
<style type="text/css">
	.st0{fill:#349AC4;}
</style>
<g>
	<g>
		<path class="st0" d="M29.6,15.1c1.4,1.6,1.5,3.2,0.4,4.7l-0.2,0.3c-0.3,0.4-2.3,2-6.1,4.7l0,0.1c2.3,0.1,3.5,0.3,3.8,0.5l0.9,0.6
			c0.3,0.2,1.2,4.1,2.7,11.8c0.8,2.6,0.9,4.3,0.5,4.9l-0.3,0.5c-0.7,1-1.8,1.1-3.3,0.4L27.4,43c-0.3-0.2-1.3-4.5-3-13
			c-0.2-0.1-2.5-0.3-7.1-0.6c-3.5-0.2-5.5-0.5-5.9-0.7l-0.5-0.3c-0.9-0.7-1.1-1.7-0.5-3.2c2.1-2.4,4-4.4,5.8-6
			c2.6-2.3,4.5-3.7,5.9-4.3c2.6-1.6,4.7-1.8,6.2-0.7l0.6,0.4L29.6,15.1z"/>
	</g>
	<circle class="st0" cx="36.3" cy="14.3" r="4.4"/>
	<path class="st0" d="M15.2,41.7c0.7-0.5,1.2-1.3,1.5-2.4l0.2,0c1.3,0.3,2.7-0.1,3.4-1.3c0.5-0.7,0.7-1.7,0.4-2.6
		c-0.3-0.8-1-1.5-1.8-1.8c-0.1-0.1-0.2-0.1-0.4-0.1c-0.5-0.2-1,0.1-1.1,0.6c-0.2,0.5,0.1,1,0.6,1.1c0.1,0,0.2,0.1,0.3,0.1
		c0.3,0.1,0.6,0.4,0.7,0.8c0.1,0.4,0.1,0.8-0.1,1.1c-0.3,0.4-0.9,0.7-1.4,0.5l-1.7-0.7l-0.5,1.4c-0.2,0.9-0.5,1.5-1,1.9
		c-0.6,0.4-1.2,0.6-1.9,0.5c-0.2,0-0.3-0.1-0.5-0.1c-0.7-0.2-1.5-0.8-1.8-1.8l-0.2-0.6l-0.2-0.8l-1.3,0.3c-0.2,0.1-0.5,0-0.7,0
		c-0.7-0.2-1.1-1-0.9-1.7l0.2-0.8l-0.6-0.5c-0.1-0.1-0.2-0.2-0.3-0.3C6.1,34.2,6,34,6,33.7c0-0.4,0.1-0.8,0.5-1.1
		c0.1-0.1,0.1-0.2,0.3-0.2c0.1-0.1,0.2-0.1,0.2-0.1c0.3-0.1,0.7-0.1,1.2,0c0.5,0.1,1-0.2,1.1-0.6c0.1-0.5-0.2-1-0.6-1.1
		c-0.9-0.3-1.6-0.2-2.4,0.1c-0.2,0.1-0.4,0.2-0.5,0.3c-0.2,0.1-0.4,0.2-0.5,0.4c-0.7,0.7-1.1,1.6-1,2.5c0,0.6,0.2,1.1,0.5,1.6
		c0.1,0.2,0.2,0.3,0.4,0.4c-0.2,0.8,0,1.7,0.4,2.3c0.4,0.6,0.9,1.1,1.6,1.3c0.4,0.1,0.8,0.2,1.2,0.2c0.5,1.6,1.9,2.6,2.9,2.9
		c0.3,0.1,0.6,0.1,0.8,0.1C13.2,42.8,14.3,42.4,15.2,41.7z"/>
</g>
<path class="st0" d="M64.9,25.7c-1.4-1.1-2.3-0.9-3.7,1.6c-0.9,1.6-2.4,1.8-3.2,1.8v-0.3c1-0.5,1.8-1.5,1.8-2.8
	c0-1.7-1.4-3.1-3.1-3.1s-3.1,1.4-3.1,3.1c0,1.2,0.7,2.3,1.8,2.8v0.3c-0.9,0-2.3-0.1-3.2-1.8c-1.4-2.5-2.3-2.7-3.7-1.6
	s-6.8,7.6-13.4,7c0,0,1.3,3,4.9,2.3c0,0,1.9,2,5,0.6c0,0,1.6,1.5,4.2,0.1c0,0,1.9,1.5,3.9,0.2c0,0,1.1,0.8,2.4,0.6l0.1,7.5
	c-0.1,0-0.3-0.1-0.4-0.1c0,0-2.2-0.5-4.6-1.1c-2.3-0.6-4.7-1.6-5.1-2.1l0.1-0.1c0.2-0.1,0.5-0.2,1-0.3c0.8-0.2,2-0.3,3.1-0.3
	c2.2-0.1,2.7,0,2.7,0c0-0.1,1.3,0.2,1.7-1.2v-0.1c-0.1-0.9-0.8-1-1.3-1.1c-0.9-0.1-0.4-0.1-1.7-0.1c-2.1,0.2-8.4-0.4-9.2,3
	c0,0.1,0,0.2,0,0.2c0.3,2.9,6.3,4.2,10.6,5c-1.5,1-2.3,2.3-2.6,4c-0.2,1.8,1.3,3.5,4.6,5.5c-2.5,1.8-4.2,3.5-4.1,5.5
	c0.2,1.7,1.7,3.9,4.6,5.3l0,0l0,0c0,0-2-3.1-2.2-4.8c-0.1-1,0.4-2.4,2.9-4.2l0.1,6.2l0,0c0,0.5,0.4,0.9,0.9,0.9s0.9-0.4,0.9-0.9l0,0
	l0.1-6c2.3,1.7,2.8,3.1,2.6,4c-0.1,1.7-2.2,4.8-2.2,4.8l0,0l0,0c2.9-1.4,4.4-3.6,4.6-5.3c0.1-2-1.5-3.7-4.1-5.5
	c3.3-1.9,4.8-3.7,4.6-5.5c-0.3-1.7-1.1-3-2.6-4c4.4-0.9,10.4-2.1,10.6-5c0-0.1,0-0.1,0-0.2c-0.8-3.3-7.1-2.8-9.2-3
	c-1.3,0-0.8-0.1-1.7,0.1c-0.6,0.1-1.3,0.2-1.3,1.1v0.1c0.4,1.3,1.7,1.1,1.7,1.2c0,0,0.4-0.1,2.7,0c1.1,0,2.3,0.1,3.1,0.3
	c0.4,0.1,0.7,0.2,1,0.3c0.1,0,0.1,0.1,0.2,0.1c-0.4,0.5-2.8,1.5-5.1,2.1C60.2,43.6,58,44,58,44c-0.1,0-0.1,0-0.2,0l0.1-7.4
	c1.3,0.2,2.4-0.6,2.4-0.6c2,1.3,3.9-0.2,3.9-0.2c2.6,1.3,4.2-0.1,4.2-0.1c3.1,1.4,5-0.6,5-0.6c3.6,0.7,4.9-2.3,4.9-2.3
	C71.7,33.3,66.3,26.8,64.9,25.7z M53.7,52.3c-0.8-0.5-1.2-1.2-1.1-1.7c0-0.7-0.2-2.2,2.9-3.4l0.1,6.2C54.9,53.1,54.3,52.7,53.7,52.3
	z M60.4,50.6c0.1,0.5-0.3,1.2-1.1,1.7c-0.5,0.3-1.1,0.7-1.6,1l0.1-5.9C60.6,48.5,60.4,50,60.4,50.6z"/>
</svg>
