<?xml version="1.0" encoding="utf-8"?>
<!-- Generator: Adobe Illustrator 21.1.0, SVG Export Plug-In . SVG Version: 6.00 Build 0)  -->
<svg version="1.1" id="Layer_1" xmlns="http://www.w3.org/2000/svg" xmlns:xlink="http://www.w3.org/1999/xlink" x="0px" y="0px"
	 viewBox="0 0 80 72" style="enable-background:new 0 0 80 72;" xml:space="preserve">
<style type="text/css">
	.st0{fill:#349AC4;}
</style>
<path class="st0" d="M51.8,9.1c-2-1.6-3.3-1.2-5.3,2.3c-1.3,2.3-3.4,2.6-4.6,2.5l0-0.5c1.5-0.7,2.5-2.2,2.5-3.9C44.4,7,42.5,5,40,5
	s-4.4,2-4.4,4.4c0,1.7,1,3.2,2.5,3.9l0,0.5c-1.3,0.1-3.3-0.2-4.6-2.5c-2-3.5-3.3-3.9-5.3-2.3c-2,1.6-9.7,10.9-19.2,10
	c0,0,1.9,4.3,7,3.3c0,0,2.7,2.8,7.2,0.8c0,0,2.3,2.1,6,0.2c0,0,2.7,2.1,5.6,0.3c0,0,1.6,1.2,3.5,0.9l0.1,10.7
	c-0.2,0-0.4-0.1-0.6-0.1c0,0-3.2-0.7-6.5-1.6c-3.2-0.8-6.8-2.2-7.3-2.9c0,0,0.1-0.1,0.2-0.1c0.3-0.2,0.8-0.3,1.4-0.4
	c1.2-0.2,2.8-0.4,4.4-0.4c3.2-0.1,3.8,0,3.8,0c0-0.1,1.9,0.2,2.4-1.7c0,0,0-0.1,0-0.1c-0.1-1.3-1.1-1.4-1.9-1.5
	c-1.3-0.2-0.6-0.1-2.4-0.1c-2.9,0.2-12-0.5-13.1,4.2c0,0.1,0,0.2,0,0.3C19,35,27.6,36.8,33.8,38c-2.1,1.4-3.2,3.3-3.7,5.7
	c-0.2,2.6,1.8,5,6.6,7.8c-3.6,2.6-6,5-5.8,7.9c0.3,2.4,2.4,5.5,6.6,7.5c0,0,0,0,0,0c0,0,0,0,0,0c0,0-2.9-4.4-3.1-6.8
	c-0.2-1.4,0.6-3.5,4.1-6l0.1,8.8h0c0,0.7,0.6,1.3,1.3,1.3c0.7,0,1.3-0.6,1.3-1.3h0l0.1-8.6c3.2,2.4,4,4.4,3.8,5.7
	C45,62.6,42.1,67,42.1,67c0,0,0,0,0,0c0,0,0,0,0,0c4.1-2,6.2-5.2,6.5-7.5c0.2-2.9-2.2-5.3-5.8-7.9c4.8-2.8,6.8-5.2,6.6-7.8
	c-0.4-2.4-1.6-4.3-3.7-5.7c6.2-1.2,14.8-3,15.2-7.2c0-0.1,0-0.2,0-0.3c-1.1-4.8-10.2-4-13.1-4.2c-1.8,0-1.1-0.1-2.4,0.1
	c-0.8,0.2-1.8,0.2-1.9,1.5c0,0,0,0.1,0,0.1c0.5,1.9,2.4,1.6,2.4,1.7c0.1,0,0.6-0.1,3.8,0c1.6,0.1,3.2,0.2,4.4,0.4
	c0.6,0.1,1.1,0.3,1.4,0.4c0.1,0,0.2,0.1,0.2,0.1c-0.5,0.7-4.1,2.1-7.3,2.9c-3.4,0.9-6.5,1.6-6.5,1.6c-0.1,0-0.1,0-0.2,0l0.1-10.6
	c1.8,0.3,3.5-0.9,3.5-0.9c2.9,1.8,5.6-0.3,5.6-0.3c3.7,1.9,6-0.2,6-0.2c4.4,2,7.2-0.8,7.2-0.8c5.1,0.9,7-3.3,7-3.3
	C61.5,19.9,53.8,10.7,51.8,9.1z M35.8,47c-1.2-0.7-1.7-1.7-1.6-2.4c0.1-0.9-0.3-3.2,4.2-4.8l0.1,8.8C37.6,48.1,36.7,47.6,35.8,47z
	 M45.4,44.6c0.1,0.7-0.4,1.7-1.6,2.4c-0.8,0.5-1.5,1-2.3,1.4l0.1-8.5C45.6,41.6,45.3,43.7,45.4,44.6z"/>
</svg>
