<?xml version="1.0" encoding="utf-8"?>
<!-- Generator: Adobe Illustrator 21.1.0, SVG Export Plug-In . SVG Version: 6.00 Build 0)  -->
<svg version="1.1" id="Layer_1" xmlns="http://www.w3.org/2000/svg" xmlns:xlink="http://www.w3.org/1999/xlink" x="0px" y="0px"
	 viewBox="0 0 80 72" style="enable-background:new 0 0 80 72;" xml:space="preserve">
<style type="text/css">
	.st0{fill:#349AC4;}
</style>
<g>
	<path class="st0" d="M68.2,34.4l-4.7,4.4h-17l-4.7-4.4c0,0,2.3-3.3,6.2-3.7c3.8-0.4,5.1,1.9,7,2c1.9-0.1,3.2-2.4,7-2
		C65.9,31.1,68.2,34.4,68.2,34.4z"/>
	<path class="st0" d="M64.8,41.6H45.3c0,0-9.4,7.4-6.3,21c0,0,1,3.9,5.7,3.9h20.6c4.7,0,5.7-3.9,5.7-3.9
		C74.1,49,64.8,41.6,64.8,41.6z M62.9,45.8c0,0-2.3,6.8-4.4,4.6C56.4,48.3,62.2,45.9,62.9,45.8z M57.5,44.5c0,0-1.5,1.2-0.5,4
		c1.2,3.1-1,3.9-1.9,3C53.1,49.4,56.8,44.7,57.5,44.5z M54.6,47.3c0,0-1.5,1.2-0.5,4c1.2,3.1-1,3.9-1.9,3
		C50.2,52.3,53.9,47.6,54.6,47.3z M50,60l-2.8,2.4c-0.6,0.6-1.2-0.6-1-0.8l2.4-2.9c0.2-0.2,0.3,0.3,0.7,0.7
		C49.7,59.7,50.2,59.8,50,60z M49.2,57.3c-2-2,1.7-6.7,2.4-6.9c0,0-1.5,1.2-0.5,4C52.3,57.4,50.1,58.2,49.2,57.3z M51.4,59.4
		c-0.9-0.9-0.2-3.1,3-2c2.8,1.1,4-0.5,4-0.5C58.1,57.7,53.4,61.4,51.4,59.4z M54.3,56.5c-0.9-0.9-0.2-3.1,3-2c2.8,1.1,4-0.5,4-0.5
		C61,54.8,56.3,58.5,54.3,56.5z M57.2,53.6c-0.9-0.9-0.2-3.1,3-1.9c2.8,1.1,4-0.5,4-0.5C63.9,51.9,59.2,55.6,57.2,53.6z"/>
</g>
<g>
	<circle class="st0" cx="18.6" cy="9.6" r="7.6"/>
	<path class="st0" d="M30.9,22.3c-2.1-4.4-7.8-3.3-11.8-3.3c-3.4,0-8.4-0.8-10.9,2.1c-1.6,1.9-3.1,3.8-4.4,5.9
		C2.3,29.2,0.1,32.2,0,35c-0.1,3.3,2.6,6,5,7.9c2.8,2.2,6.1,3.9,9.5,4.7c1.7,0.4,3.6,0.7,5.1-0.4c1.5-1.1,2-3.1,1.2-4.8
		c-0.9-1.9-2.6-2-4.4-2.4c-2.1-0.5-4.2-1.5-5.9-2.8c1.3-0.3,2.6-0.7,3.8-1.2c-1.2-1.5-3.2-4.2-2.9-6.3c0.4-2.7,4-2.7,4.8-0.3
		c1.2,3.4,4.2,6.2,7.7,7.3c-0.1-0.1-0.3-0.1-0.4-0.2c0.3,0.1,1.7,0.5,1.7,0.6c-1.7,1.1-3.1,2.5-2.6,4.8c0.6,2.7,3.7,3.9,6,2.5
		c2-1.3,3.9-2.6,5.7-4.1c1.4-1.2,3.1-2.6,3.3-4.5c0.1-1.2-0.2-2.2-0.7-3.2C35.3,28.9,33,25.6,30.9,22.3
		C30.7,21.8,37.7,32.8,30.9,22.3z M19.5,30c0-3.1,2.5-5.6,5.6-5.6c3.1,0,5.6,2.5,5.6,5.6c0,3.1-2.5,5.6-5.6,5.6
		C22.1,35.6,19.5,33.1,19.5,30z"/>
</g>
</svg>
