<?xml version="1.0" encoding="utf-8"?>
<!-- Generator: Adobe Illustrator 21.1.0, SVG Export Plug-In . SVG Version: 6.00 Build 0)  -->
<svg version="1.1" id="Layer_1" xmlns="http://www.w3.org/2000/svg" xmlns:xlink="http://www.w3.org/1999/xlink" x="0px" y="0px"
	 viewBox="0 0 80 72" style="enable-background:new 0 0 80 72;" xml:space="preserve">
<style type="text/css">
	.st0{fill:#349AC4;}
</style>
<g>
	<path class="st0" d="M61.2,34.4l-4.7,4.4h-17l-4.7-4.4c0,0,2.3-3.3,6.2-3.7c3.8-0.4,5.1,1.9,7,2c1.9-0.1,3.2-2.4,7-2
		C58.9,31.1,61.2,34.4,61.2,34.4z"/>
	<path class="st0" d="M57.8,41.6H38.3c0,0-9.4,7.4-6.3,21c0,0,1,3.9,5.7,3.9h20.6c4.7,0,5.7-3.9,5.7-3.9
		C67.1,49,57.8,41.6,57.8,41.6z M55.9,45.8c0,0-2.3,6.8-4.4,4.6C49.4,48.3,55.2,45.9,55.9,45.8z M50.5,44.5c0,0-1.5,1.2-0.5,4
		c1.2,3.1-1,3.9-1.9,3C46.1,49.4,49.8,44.7,50.5,44.5z M47.6,47.3c0,0-1.5,1.2-0.5,4c1.2,3.1-1,3.9-1.9,3
		C43.2,52.3,46.9,47.6,47.6,47.3z M43,60l-2.8,2.4c-0.6,0.6-1.2-0.6-1-0.8l2.4-2.9c0.2-0.2,0.3,0.3,0.7,0.7
		C42.7,59.7,43.2,59.8,43,60z M42.2,57.3c-2-2,1.7-6.7,2.4-6.9c0,0-1.5,1.2-0.5,4C45.3,57.4,43.1,58.2,42.2,57.3z M44.4,59.4
		c-0.9-0.9-0.2-3.1,3-2c2.8,1.1,4-0.5,4-0.5C51.1,57.7,46.4,61.4,44.4,59.4z M47.3,56.5c-0.9-0.9-0.2-3.1,3-2c2.8,1.1,4-0.5,4-0.5
		C54,54.8,49.3,58.5,47.3,56.5z M50.2,53.6c-0.9-0.9-0.2-3.1,3-1.9c2.8,1.1,4-0.5,4-0.5C56.9,51.9,52.2,55.6,50.2,53.6z"/>
</g>
<g>
	<path class="st0" d="M10.3,14.1c0,2.7-2.2,4.9-4.9,4.9s-4.9-2.2-4.9-4.9c0-2.7,2.2-4.9,4.9-4.9S10.3,11.4,10.3,14.1z"/>
	<path class="st0" d="M5.4,27.1c-2.7,0-4.9,2.2-4.9,4.9S2.6,37,5.4,37s4.9-2.2,4.9-4.9S8.1,27.1,5.4,27.1z"/>
	<path class="st0" d="M23.3,27.1c-2.7,0-4.9,2.2-4.9,4.9s2.2,4.9,4.9,4.9c2.7,0,4.9-2.2,4.9-4.9S26.1,27.1,23.3,27.1z"/>
	<path class="st0" d="M23.3,9.2c-2.7,0-4.9,2.2-4.9,4.9c0,2.7,2.2,4.9,4.9,4.9c2.7,0,4.9-2.2,4.9-4.9C28.3,11.4,26.1,9.2,23.3,9.2z"
		/>
	<path class="st0" d="M14.3,18.2c-2.7,0-4.9,2.2-4.9,4.9c0,2.7,2.2,4.9,4.9,4.9s4.9-2.2,4.9-4.9C19.3,20.4,17.1,18.2,14.3,18.2z"/>
</g>
</svg>
