<?xml version="1.0" encoding="utf-8"?>
<!-- Generator: Adobe Illustrator 21.1.0, SVG Export Plug-In . SVG Version: 6.00 Build 0)  -->
<svg version="1.1" id="Layer_1" xmlns="http://www.w3.org/2000/svg" xmlns:xlink="http://www.w3.org/1999/xlink" x="0px" y="0px"
	 viewBox="0 0 80 72" style="enable-background:new 0 0 80 72;" xml:space="preserve">
<style type="text/css">
	.st0{fill:#349AC4;}
</style>
<g>
	<path class="st0" d="M61.2,34.4l-4.7,4.4h-17l-4.7-4.4c0,0,2.3-3.3,6.2-3.7c3.8-0.4,5.1,1.9,7,2c1.9-0.1,3.2-2.4,7-2
		C58.9,31.1,61.2,34.4,61.2,34.4z"/>
	<path class="st0" d="M57.8,41.6H38.3c0,0-9.4,7.4-6.3,21c0,0,1,3.9,5.7,3.9h20.6c4.7,0,5.7-3.9,5.7-3.9
		C67.1,49,57.8,41.6,57.8,41.6z M55.9,45.8c0,0-2.3,6.8-4.4,4.6C49.4,48.3,55.2,45.9,55.9,45.8z M50.5,44.5c0,0-1.5,1.2-0.5,4
		c1.2,3.1-1,3.9-1.9,3C46.1,49.4,49.8,44.7,50.5,44.5z M47.6,47.3c0,0-1.5,1.2-0.5,4c1.2,3.1-1,3.9-1.9,3
		C43.2,52.3,46.9,47.6,47.6,47.3z M43,60l-2.8,2.4c-0.6,0.6-1.2-0.6-1-0.8l2.4-2.9c0.2-0.2,0.3,0.3,0.7,0.7
		C42.7,59.7,43.2,59.8,43,60z M42.2,57.3c-2-2,1.7-6.7,2.4-6.9c0,0-1.5,1.2-0.5,4C45.3,57.4,43.1,58.2,42.2,57.3z M44.4,59.4
		c-0.9-0.9-0.2-3.1,3-2c2.8,1.1,4-0.5,4-0.5C51.1,57.7,46.4,61.4,44.4,59.4z M47.3,56.5c-0.9-0.9-0.2-3.1,3-2c2.8,1.1,4-0.5,4-0.5
		C54,54.8,49.3,58.5,47.3,56.5z M50.2,53.6c-0.9-0.9-0.2-3.1,3-1.9c2.8,1.1,4-0.5,4-0.5C56.9,51.9,52.2,55.6,50.2,53.6z"/>
</g>
<g>
	<path class="st0" d="M15.7,5.4c0,2.1-1.7,3.9-3.9,3.9c-2.1,0-3.9-1.7-3.9-3.9c0-2.1,1.7-3.9,3.9-3.9C13.9,1.5,15.7,3.2,15.7,5.4z"
		/>
	<path class="st0" d="M12.2,32L13,46.3c0,0.5,0.4,0.9,0.9,0.9c0.5,0,0.9-0.4,0.9-0.9L15.6,32h2.5l-2.6-16.1l5.3,10.5
		c0.2,0.5,0.7,0.7,1.2,0.5c0.5-0.2,0.7-0.7,0.5-1.2c0,0-3.9-10.5-4.8-12.4c-1-2-1.9-3.1-5.5-3.1h-0.7c-3.6,0-4.6,1.2-5.5,3.1
		c-1,1.9-4.8,12.4-4.8,12.4c-0.2,0.5,0,1,0.5,1.2c0.5,0.2,1,0,1.2-0.5L8,15.9L5.4,32h2.5l0.8,14.3c0,0.5,0.4,0.9,0.9,0.9
		c0.5,0,0.9-0.4,0.9-0.9L11.3,32H12.2z"/>
	<path class="st0" d="M27.5,25.1c-1.3,0-2.4,1.1-2.4,2.4c0,1.3,1.1,2.4,2.4,2.4c1.3,0,2.4-1.1,2.4-2.4
		C29.9,26.2,28.8,25.1,27.5,25.1z"/>
	<path class="st0" d="M29.2,36c-0.4-0.1-0.3-5.6-1.5-5.6h-0.5c-1.2,0-1.6,0.2-2,0.3c-1.8-0.3-4.3-3.6-4.4-3.7
		c-0.2-0.2-0.4-0.3-0.6-0.3c-0.3,0.1-0.5,0.4-0.5,0.7c0,0.2,0.2,0.5,0.3,0.6c0.1,0.2,2.2,3.4,3.5,4.2c1.2,0.7,1.2,0.4,1.4,1.5
		l0.1,3.1L24.6,46c0,0.1,0,0.5,0,0.5c0.1,0.4,0.5,0.7,0.9,0.7c0.4,0,0.8-0.3,0.9-0.6c0,0,1.1-7.5,1.1-7.5"/>
	<path class="st0" d="M27.3,30.4h0.4c2.1,0,2.9,0.7,3.4,1.8c0.5,1.1,0.8,5.6,0.8,5.6c0.1,0.3,0,0.6-0.3,0.7c-0.3,0.1-0.6,0-0.7-0.3
		l-1.1-4.5l-0.1,4.8h0l0.4,7.9c0,0.5-0.3,0.9-0.8,0.9c0,0,0,0-0.1,0c-0.4,0-0.8-0.3-0.9-0.8l-1-7.4"/>
</g>
</svg>
