<?xml version="1.0" encoding="utf-8"?>
<!-- Generator: Adobe Illustrator 21.1.0, SVG Export Plug-In . SVG Version: 6.00 Build 0)  -->
<svg version="1.1" id="Layer_1" xmlns="http://www.w3.org/2000/svg" xmlns:xlink="http://www.w3.org/1999/xlink" x="0px" y="0px"
	 viewBox="0 0 80 72" style="enable-background:new 0 0 80 72;" xml:space="preserve">
<style type="text/css">
	.st0{fill:#349AC4;}
</style>
<path class="st0" d="M44.8,0.5L30.6,14.6h3.5v10.6h21.2V14.6h3.5L44.8,0.5z"/>
<path class="st0" d="M13.8,0.5L-0.4,14.6h3.5v10.6h21.2V14.6h3.5L13.8,0.5z"/>
<g>
	<path class="st0" d="M29.3,27.4L15.1,41.5h3.5v10.6h21.2V41.5h3.5L29.3,27.4z"/>
</g>
<g>
	<path class="st0" d="M74.2,34.4l-4.7,4.4h-17l-4.7-4.4c0,0,2.3-3.3,6.2-3.7c3.8-0.4,5.1,1.9,7,2c1.9-0.1,3.2-2.4,7-2
		C71.9,31.1,74.2,34.4,74.2,34.4z"/>
	<path class="st0" d="M70.8,41.6H51.3c0,0-9.4,7.4-6.3,21c0,0,1,3.9,5.7,3.9h20.6c4.7,0,5.7-3.9,5.7-3.9
		C80.1,49,70.8,41.6,70.8,41.6z M68.9,45.8c0,0-2.3,6.8-4.4,4.6C62.4,48.3,68.2,45.9,68.9,45.8z M63.5,44.5c0,0-1.5,1.2-0.5,4
		c1.2,3.1-1,3.9-1.9,3C59.1,49.4,62.8,44.7,63.5,44.5z M60.6,47.3c0,0-1.5,1.2-0.5,4c1.2,3.1-1,3.9-1.9,3
		C56.2,52.3,59.9,47.6,60.6,47.3z M56,60l-2.8,2.4c-0.6,0.6-1.2-0.6-1-0.8l2.4-2.9c0.2-0.2,0.3,0.3,0.7,0.7
		C55.7,59.7,56.2,59.8,56,60z M55.2,57.3c-2-2,1.7-6.7,2.4-6.9c0,0-1.5,1.2-0.5,4C58.3,57.4,56.1,58.2,55.2,57.3z M57.4,59.4
		c-0.9-0.9-0.2-3.1,3-2c2.8,1.1,4-0.5,4-0.5C64.1,57.7,59.4,61.4,57.4,59.4z M60.3,56.5c-0.9-0.9-0.2-3.1,3-2c2.8,1.1,4-0.5,4-0.5
		C67,54.8,62.3,58.5,60.3,56.5z M63.2,53.6c-0.9-0.9-0.2-3.1,3-1.9c2.8,1.1,4-0.5,4-0.5C69.9,51.9,65.2,55.6,63.2,53.6z"/>
</g>
</svg>
