<?xml version="1.0" encoding="utf-8"?>
<!-- Generator: Adobe Illustrator 21.1.0, SVG Export Plug-In . SVG Version: 6.00 Build 0)  -->
<svg version="1.1" id="Layer_1" xmlns="http://www.w3.org/2000/svg" xmlns:xlink="http://www.w3.org/1999/xlink" x="0px" y="0px"
	 viewBox="0 0 80 72" style="enable-background:new 0 0 80 72;" xml:space="preserve">
<style type="text/css">
	.st0{fill:#349AC4;}
</style>
<g>
	<path class="st0" d="M68.2,34.4l-4.7,4.4h-17l-4.7-4.4c0,0,2.3-3.3,6.2-3.7c3.8-0.4,5.1,1.9,7,2c1.9-0.1,3.2-2.4,7-2
		C65.9,31.1,68.2,34.4,68.2,34.4z"/>
	<path class="st0" d="M64.8,41.6H45.3c0,0-9.4,7.4-6.3,21c0,0,1,3.9,5.7,3.9h20.6c4.7,0,5.7-3.9,5.7-3.9
		C74.1,49,64.8,41.6,64.8,41.6z M62.9,45.8c0,0-2.3,6.8-4.4,4.6C56.4,48.3,62.2,45.9,62.9,45.8z M57.5,44.5c0,0-1.5,1.2-0.5,4
		c1.2,3.1-1,3.9-1.9,3C53.1,49.4,56.8,44.7,57.5,44.5z M54.6,47.3c0,0-1.5,1.2-0.5,4c1.2,3.1-1,3.9-1.9,3
		C50.2,52.3,53.9,47.6,54.6,47.3z M50,60l-2.8,2.4c-0.6,0.6-1.2-0.6-1-0.8l2.4-2.9c0.2-0.2,0.3,0.3,0.7,0.7
		C49.7,59.7,50.2,59.8,50,60z M49.2,57.3c-2-2,1.7-6.7,2.4-6.9c0,0-1.5,1.2-0.5,4C52.3,57.4,50.1,58.2,49.2,57.3z M51.4,59.4
		c-0.9-0.9-0.2-3.1,3-2c2.8,1.1,4-0.5,4-0.5C58.1,57.7,53.4,61.4,51.4,59.4z M54.3,56.5c-0.9-0.9-0.2-3.1,3-2c2.8,1.1,4-0.5,4-0.5
		C61,54.8,56.3,58.5,54.3,56.5z M57.2,53.6c-0.9-0.9-0.2-3.1,3-1.9c2.8,1.1,4-0.5,4-0.5C63.9,51.9,59.2,55.6,57.2,53.6z"/>
</g>
<path class="st0" d="M0.4,35.2c0.6,1,1.6,1.6,2.8,1.6h31.6c1.2,0,2.2-0.6,2.8-1.6c0.6-1,0.6-2.2,0-3.2L21.8,4.6
	C21.2,3.6,20.1,3,19,3s-2.2,0.6-2.8,1.6L0.4,32C-0.1,33-0.1,34.2,0.4,35.2z M17.5,27.5c0.4-0.4,0.9-0.6,1.5-0.6s1.1,0.2,1.5,0.6
	c0.4,0.4,0.6,0.9,0.6,1.5s-0.2,1.1-0.6,1.5c-0.4,0.4-0.9,0.6-1.5,0.6s-1.1-0.2-1.5-0.6c-0.4-0.4-0.6-0.9-0.6-1.5
	C16.9,28.4,17.1,27.9,17.5,27.5z M17.3,25.5V14.4h3.5v11.2H17.3z"/>
</svg>
