<?xml version="1.0" encoding="utf-8"?>
<!-- Generator: Adobe Illustrator 21.1.0, SVG Export Plug-In . SVG Version: 6.00 Build 0)  -->
<svg version="1.1" id="Layer_1" xmlns="http://www.w3.org/2000/svg" xmlns:xlink="http://www.w3.org/1999/xlink" x="0px" y="0px"
	 viewBox="0 0 46 80" style="enable-background:new 0 0 46 80;" xml:space="preserve">
<style type="text/css">
	.st0{fill:#349AC4;}
</style>
<path class="st0" d="M16.1,60.8c0-3.1,0-6.3,0-9.5c0-1.2-0.1-3.1-0.6-3.3c-8.5-2.6-5.2-9.6-5.4-14.9C9.7,20.5,10,20.4,22.6,20.4
	c13.4,0,13.6,0,13.3,13.7c-0.1,5,2.7,11.5-5.2,13.8c-1.3,0.4-0.7,2.5-0.7,3.8c0,6.1-0.1,12.2,0,18.3c0.1,4.7-2.2,6.1-6.6,6
	s-7.6-0.4-7.4-5.8C16.2,67.1,16.1,64,16.1,60.8z M30.8,11.7c0.5-3.8-3.1-7.5-7.2-7.8c-4.3-0.3-8.6,3.2-8.4,7.2
	c0.2,4.6,3,7.1,7.7,7.6C27.2,18.5,30.2,16.3,30.8,11.7z"/>
</svg>
