<?xml version="1.0" encoding="utf-8"?>
<!-- Generator: Adobe Illustrator 21.1.0, SVG Export Plug-In . SVG Version: 6.00 Build 0)  -->
<svg version="1.1" id="Layer_1" xmlns="http://www.w3.org/2000/svg" xmlns:xlink="http://www.w3.org/1999/xlink" x="0px" y="0px"
	 viewBox="0 0 80 72" style="enable-background:new 0 0 80 72;" xml:space="preserve">
<style type="text/css">
	.st0{fill:#349AC4;}
</style>
<g>
	<polygon class="st0" points="47.5,16.3 42.9,16.3 30.9,28.3 35.8,28.3 47.7,16.4 	"/>
	<polygon class="st0" points="37,16.3 32.4,16.3 20.4,28.3 25.3,28.3 37.2,16.4 	"/>
	<polygon class="st0" points="58,16.3 53.4,16.3 41.4,28.3 46.3,28.3 58.2,16.4 	"/>
	<path class="st0" d="M73.8,33.9c0-0.1,0-0.1,0-0.1c0,0,0,0,0-0.1h0c-0.1-0.2-0.3-0.4-0.6-0.4c-0.2,0-0.4,0.1-0.6,0.4
		c-0.1,0.1-0.1,0.2-0.1,0.3c-1.1,2.6-2.4,4.1-4.1,4.7v14.2h11.4V39h0.1C77.1,39,75.2,37.5,73.8,33.9z"/>
	<path class="st0" d="M13.1,52.9V39c-2.6-0.1-4.3-1.7-5.7-5.1c0-0.1,0-0.1-0.1-0.1c0,0,0,0,0-0.1h0c-0.1-0.2-0.3-0.4-0.6-0.4
		c-0.2,0-0.4,0.1-0.6,0.4C6.1,33.8,6,33.9,6,34c-1.4,3.5-3.3,5-6,5h0.1v13.9H13.1z"/>
	<path class="st0" d="M60.4,33.9c0-0.1,0-0.1-0.1-0.1c0,0,0,0,0-0.1h0c-0.1-0.2-0.3-0.4-0.6-0.4c-0.2,0-0.4,0.1-0.6,0.4
		C59.1,33.8,59,33.9,59,34c-1.4,3.4-3.2,5-5.9,5c-2.7,0-4.5-1.6-5.9-5.1c0-0.1,0-0.1-0.1-0.1c0,0,0,0,0-0.1h0
		c-0.1-0.2-0.4-0.4-0.6-0.4c-0.2,0-0.4,0.1-0.6,0.4c0,0.1-0.1,0.2-0.1,0.3c-1.4,3.5-3.2,5-6,5h0c-2.8,0-4.6-1.6-6-5.1
		c0-0.1,0-0.1-0.1-0.1c0,0,0,0,0-0.1h0c-0.1-0.2-0.4-0.4-0.6-0.4c-0.2,0-0.4,0.1-0.6,0.4c0,0.1-0.1,0.2-0.1,0.3
		c-1.4,3.4-3.2,4.9-5.8,5c-2.7-0.1-4.4-1.6-5.8-5.1c0-0.1,0-0.1-0.1-0.1c0,0,0,0,0-0.1h0c-0.1-0.2-0.3-0.4-0.6-0.4
		c-0.2,0-0.5,0.1-0.6,0.4h0c-0.1,0.1-0.1,0.2-0.1,0.3c-0.2,0.5-0.4,1-0.6,1.4v17.6h43.9V37.5C61.8,36.7,61.1,35.5,60.4,33.9z"/>
	<path class="st0" d="M62.6,13v4.6L51.9,28.3h4.9l5.8-5.8v15c1,1,2.3,1.5,3.8,1.5h0c0.7,0,1.3-0.1,1.9-0.3v14.3h0V13H62.6z"/>
	<path class="st0" d="M26.6,16.3H22l-3.2,3.2V13h-5.7v25.9c0.1,0,0.2,0,0.3,0h0c2.4,0,4-1.1,5.4-3.6V24.4l8-8L26.6,16.3z"/>
</g>
</svg>
