<?xml version="1.0" encoding="utf-8"?>
<!-- Generator: Adobe Illustrator 21.1.0, SVG Export Plug-In . SVG Version: 6.00 Build 0)  -->
<svg version="1.1" id="Layer_1" xmlns="http://www.w3.org/2000/svg" xmlns:xlink="http://www.w3.org/1999/xlink" x="0px" y="0px"
	 viewBox="0 0 80 72" style="enable-background:new 0 0 80 72;" xml:space="preserve">
<style type="text/css">
	.st0{fill:#349AC4;}
</style>
<g>
	<path class="st0" d="M31.3,16.1c-1,7.7-6.6,13-6.6,16.7c0,3.6,2.9,6.6,6.6,6.6c3.6,0,6.6-2.9,6.6-6.6
		C37.8,29.2,32.2,23.8,31.3,16.1z M34.5,36.8c0,0,2.7-3.8,0.5-8.3C35.8,29.9,38.7,34,34.5,36.8z"/>
	<path class="st0" d="M69.3,54.3H9c-0.6,0-1.2-0.5-1.2-1.2c0-0.6,0.5-1.2,1.2-1.2h59.1V19c0-0.6,0.5-1.2,1.2-1.2s1.2,0.5,1.2,1.2
		v34.1C70.5,53.8,69.9,54.3,69.3,54.3z"/>
	<path class="st0" d="M65.4,50.3H5.1c-0.6,0-1.2-0.5-1.2-1.2c0-0.6,0.5-1.2,1.2-1.2h59.1V15.1c0-0.6,0.5-1.2,1.2-1.2
		s1.2,0.5,1.2,1.2v34.1C66.6,49.9,66,50.3,65.4,50.3z"/>
	<path class="st0" d="M61.5,46.4H1.2c-0.6,0-1.2-0.5-1.2-1.2V11.2C0,10.5,0.5,10,1.2,10h60.3c0.6,0,1.2,0.5,1.2,1.2v34.1
		C62.7,45.9,62.1,46.4,61.5,46.4z M2.3,44.1h58V12.4h-58V44.1z"/>
	<g>
		<path class="st0" d="M15.3,28.2c0-4.8,2-9,5.3-11.9H7.4c-0.6,0-1.2,0.5-1.2,1.2v21.5c0,0.6,0.5,1.2,1.2,1.2h13.2
			C17.3,37.3,15.3,33,15.3,28.2z"/>
		<path class="st0" d="M55.2,16.3H42.1c3.3,3,5.3,7.2,5.3,11.9s-2,9-5.3,11.9h13.2c0.6,0,1.2-0.5,1.2-1.2V17.4
			C56.4,16.8,55.8,16.3,55.2,16.3z"/>
	</g>
</g>
</svg>
