<?xml version="1.0" encoding="utf-8"?>
<!-- Generator: Adobe Illustrator 21.1.0, SVG Export Plug-In . SVG Version: 6.00 Build 0)  -->
<svg version="1.1" id="Layer_1" xmlns="http://www.w3.org/2000/svg" xmlns:xlink="http://www.w3.org/1999/xlink" x="0px" y="0px"
	 viewBox="0 0 80 72" style="enable-background:new 0 0 80 72;" xml:space="preserve">
<style type="text/css">
	.st0{fill:#349AC4;}
</style>
<g>
	<path class="st0" d="M0,25.9h14.1c-0.9,1.3-1.5,2.8-1.5,4.5H5.6L0,29V25.9z"/>
	<path class="st0" d="M64.8,14.9l-4-12V0H48.3v25.9h-3.6c-0.5-2.2-1.1-4.1-1.5-5.2c1.6-1.8,2.6-4.1,2.6-6.7v-3.8
		C45.7,4.6,41.1,0,35.5,0H10.2C4.6,0,0,4.6,0,10.2V14c0,5.6,4.6,10.2,10.2,10.2h25.3c2,0,3.8-0.6,5.4-1.6c0.3,0.9,0.6,2.1,0.9,3.3
		H26c0.9,1.3,1.5,2.8,1.5,4.5h15.3c0.4,2.6,0.6,5.2,0.1,7.1c-0.7,2.5-3.3,4.9-5.7,7.3c-2.7,2.5-5.4,5.1-6.4,8.2l2.6,0.9
		c0.8-2.4,3.3-4.8,5.7-7.1c2.7-2.6,5.6-5.3,6.5-8.6c0.6-2.2,0.5-5,0.1-7.9h5.3c0-4.1,3.3-7.5,7.5-7.5c2.9,0,5.4,1.7,6.6,4.1
		c0.4,0.9,0.7,1.8,0.8,2.9c0,0.2,0,0.3,0,0.5h6V17.9L64.8,14.9z M51.8,14.9V6h7l3,9H51.8z"/>
	<path class="st0" d="M20.1,24.9c-3,0-5.5,2.5-5.5,5.5c0,3,2.5,5.5,5.5,5.5c3,0,5.5-2.4,5.5-5.5C25.5,27.4,23.1,24.9,20.1,24.9z
		 M20.1,33.4c-1.7,0-3-1.3-3-3c0-1.6,1.3-3,3-3c1.6,0,3,1.3,3,3C23,32,21.7,33.4,20.1,33.4z"/>
	<path class="st0" d="M58.3,24.9c-3,0-5.5,2.5-5.5,5.5c0,3,2.5,5.5,5.5,5.5c3,0,5.5-2.4,5.5-5.5C63.8,27.4,61.3,24.9,58.3,24.9z
		 M58.3,33.4c-1.6,0-3-1.3-3-3c0-1.6,1.3-3,3-3c1.6,0,3,1.3,3,3C61.3,32,59.9,33.4,58.3,33.4z"/>
	<g>
		<path class="st0" d="M26.2,70.4L26.2,70.4c0.2-0.6,0-1.2-0.5-1.4c-0.5-0.2-1.1,0.1-1.3,0.6l0,0.1c-0.2,0.5,0.1,1.1,0.6,1.3
			c0.1,0,0.2,0.1,0.3,0.1C25.6,71,26,70.8,26.2,70.4z"/>
		<path class="st0" d="M27.2,67.5L27.2,67.5c0.2-0.6,0-1.2-0.6-1.4c-0.5-0.2-1.1,0.1-1.3,0.6l0,0.1c-0.2,0.5,0.1,1.1,0.6,1.3
			c0.1,0,0.2,0.1,0.3,0.1C26.7,68.1,27.1,67.9,27.2,67.5z"/>
		<path class="st0" d="M28.3,64.6L28.3,64.6c0.2-0.6,0-1.2-0.5-1.4c-0.5-0.2-1.1,0.1-1.3,0.6l0,0.1c-0.2,0.5,0.1,1.1,0.6,1.3
			c0.1,0,0.2,0.1,0.3,0.1C27.8,65.3,28.2,65,28.3,64.6z"/>
		<path class="st0" d="M29.4,61.7L29.4,61.7c0.2-0.6,0-1.2-0.6-1.4c-0.5-0.2-1.1,0.1-1.3,0.6l0,0.1c-0.2,0.5,0.1,1.1,0.6,1.3
			c0.1,0,0.2,0.1,0.3,0.1C28.9,62.4,29.3,62.1,29.4,61.7z"/>
		<path class="st0" d="M30.5,58.9L30.5,58.9c0.2-0.6,0-1.2-0.5-1.4c-0.5-0.2-1.1,0.1-1.3,0.6l0,0.1c-0.2,0.5,0.1,1.1,0.6,1.3
			c0.1,0,0.2,0.1,0.3,0.1C30,59.5,30.3,59.3,30.5,58.9z"/>
	</g>
	<path class="st0" d="M31.6,56c0.2-0.5-0.1-1.1-0.6-1.3c-0.5-0.2-1.1,0.1-1.3,0.6l0,0c-0.2,0.5,0.1,1.1,0.6,1.3
		c0.1,0,0.2,0.1,0.3,0.1C31,56.6,31.4,56.4,31.6,56z"/>
	<g>
		<path class="st0" d="M33.3,69.6v-0.1c0-0.5-0.4-1-1-1c-0.5,0-1,0.4-1,1v0.1c0,0.6,0.4,1,1,1C32.9,70.6,33.3,70.2,33.3,69.6z"/>
		<path class="st0" d="M33.3,66.4v-0.1c0-0.5-0.4-1-1-1c-0.5,0-1,0.4-1,1v0.1c0,0.5,0.4,1,1,1C32.9,67.4,33.3,66.9,33.3,66.4z"/>
		<path class="st0" d="M33.3,63.1V63c0-0.6-0.4-1-1-1c-0.5,0-1,0.4-1,1v0.1c0,0.5,0.4,1,1,1C32.9,64.1,33.3,63.7,33.3,63.1z"/>
	</g>
	<path class="st0" d="M33.3,59.8c0-0.6-0.4-1-1-1c-0.5,0-1,0.4-1,1v0c0,0.6,0.4,1,1,1C32.9,60.9,33.3,60.4,33.3,59.8z"/>
	<g>
		<path class="st0" d="M19.6,66.3c0.4-0.4,0.4-1,0-1.4c-0.4-0.4-1-0.4-1.4,0L18.1,65c-0.4,0.4-0.3,1,0.1,1.4
			c0.2,0.2,0.4,0.3,0.7,0.3C19.1,66.6,19.4,66.5,19.6,66.3z"/>
		<path class="st0" d="M21.6,64.3c0.4-0.4,0.4-1,0-1.4c-0.4-0.4-1-0.4-1.4,0L20.1,63c-0.4,0.4-0.3,1,0.1,1.4
			c0.2,0.2,0.4,0.3,0.7,0.3C21.1,64.6,21.4,64.5,21.6,64.3z"/>
		<path class="st0" d="M23.5,62.2c0.4-0.4,0.4-1,0-1.4c-0.4-0.4-1-0.4-1.4,0L22,60.9c-0.4,0.4-0.3,1,0.1,1.4
			c0.2,0.2,0.4,0.3,0.7,0.3C23,62.5,23.3,62.4,23.5,62.2z"/>
		<path class="st0" d="M25.4,60.1c0.4-0.4,0.4-1,0-1.4c-0.4-0.4-1-0.4-1.4,0l-0.1,0.1c-0.4,0.4-0.3,1,0.1,1.4
			c0.2,0.2,0.4,0.3,0.7,0.3C25,60.5,25.2,60.4,25.4,60.1z"/>
	</g>
	<path class="st0" d="M27.4,58.1c0.4-0.4,0.4-1-0.1-1.4c-0.4-0.4-1-0.3-1.4,0.1l0,0c-0.4,0.4-0.3,1,0.1,1.4c0.2,0.2,0.4,0.3,0.7,0.3
		C26.9,58.4,27.2,58.3,27.4,58.1z"/>
</g>
</svg>
